MFile 1 1 192
MTrk
000:00:000 TimeSig 4/4 24 8
000:00:000 Tempo 500000
000:00:000 Meta SeqName "running/13/01-1"
000:00:000 Meta Marker "xuender"
000:00:000 Meta Copyright "https://github.com/xuender/musical-timer"
000:00:000 Meta Text "start"
000:00:000 On      ch=1   note=c4   vol=100
000:00:096 On      ch=1   note=c4   vol=0
000:00:096 On      ch=1   note=d4   vol=100
000:00:192 On      ch=1   note=d4   vol=0
000:00:192 On      ch=1   note=e4   vol=100
000:00:288 On      ch=1   note=e4   vol=0
030:00:000 On      ch=1   note=f4   vol=100
030:00:000 On      ch=1   note=f4   vol=0
030:00:000 Meta Text "Running 1"
090:00:000 On      ch=1   note=f4   vol=100
090:00:000 On      ch=1   note=f4   vol=0
090:00:000 Meta Text "Walking 1"
120:00:000 On      ch=1   note=f4   vol=100
120:00:000 On      ch=1   note=f4   vol=0
120:00:000 Meta Text "Running 2"
180:00:000 On      ch=1   note=f4   vol=100
180:00:000 On      ch=1   note=f4   vol=0
180:00:000 Meta Text "Walking 2"
210:00:000 On      ch=1   note=f4   vol=100
210:00:000 On      ch=1   note=f4   vol=0
210:00:000 Meta Text "Running 3"
270:00:000 On      ch=1   note=f4   vol=100
270:00:000 On      ch=1   note=f4   vol=0
270:00:000 Meta Text "Walking 3"
300:00:000 On      ch=1   note=f4   vol=100
300:00:000 On      ch=1   note=f4   vol=0
300:00:000 Meta Text "Running 4"
360:00:000 On      ch=1   note=f4   vol=100
360:00:000 On      ch=1   note=f4   vol=0
360:00:000 Meta Text "Walking 4"
390:00:000 On      ch=1   note=f4   vol=100
390:00:000 On      ch=1   note=f4   vol=0
390:00:000 Meta Text "Running 5"
450:00:000 On      ch=1   note=f4   vol=100
450:00:000 On      ch=1   note=f4   vol=0
450:00:000 Meta Text "Walking 5"
480:00:000 On      ch=1   note=f4   vol=100
480:00:000 On      ch=1   note=f4   vol=0
480:00:000 Meta Text "Running 6"
540:00:000 On      ch=1   note=f4   vol=100
540:00:000 On      ch=1   note=f4   vol=0
540:00:000 Meta Text "Walking 6"
570:00:000 On      ch=1   note=f4   vol=100
570:00:000 On      ch=1   note=f4   vol=0
570:00:000 Meta Text "Running 7"
630:00:000 On      ch=1   note=f4   vol=100
630:00:000 On      ch=1   note=f4   vol=0
630:00:000 Meta Text "Walking 7"
660:00:000 On      ch=1   note=f4   vol=100
660:00:000 On      ch=1   note=f4   vol=0
660:00:000 Meta Text "Running 8"
660:00:000 Meta Text "End"
660:00:000 Meta TrkEnd
TrkEnd
