MFile 1 1 192
MTrk
000:00:000 TimeSig 4/4 24 8
000:00:000 Tempo 500000
000:00:000 Meta SeqName "running/13/01-3"
000:00:000 Meta Marker "xuender"
000:00:000 Meta Copyright "https://github.com/xuender/musical-timer"

000:00:000 ProgCh  ch=1   prog=14

000:00:000 On      ch=1   note=e6   vol=127
000:00:119 On      ch=1   note=e6   vol=0
000:01:000 On      ch=1   note=f6   vol=127
000:01:059 On      ch=1   note=f6   vol=0
000:01:060 On      ch=1   note=g6   vol=127
000:02:059 On      ch=1   note=g6   vol=0
000:02:060 On      ch=1   note=e6   vol=127
000:02:119 On      ch=1   note=e6   vol=0
000:03:000 On      ch=1   note=f6   vol=127
000:03:119 On      ch=1   note=f6   vol=0

030:00:000 On      ch=1   note=d5   vol=49
030:00:000 On      ch=1   note=c7   vol=71
030:00:120 On      ch=1   note=b6   vol=58
030:00:132 Off     ch=1   note=c7   vol=20
030:00:240 On      ch=1   note=a6   vol=73
030:00:272 Off     ch=1   note=b6   vol=8
030:00:335 Off     ch=1   note=a6   vol=32
030:00:360 On      ch=1   note=f6   vol=61
030:00:434 Off     ch=1   note=f6   vol=12

090:00:000 On      ch=1   note=e6   vol=127
090:00:119 On      ch=1   note=e6   vol=0
090:01:000 On      ch=1   note=f6   vol=127
090:01:059 On      ch=1   note=f6   vol=0
090:01:060 On      ch=1   note=g6   vol=127
090:02:059 On      ch=1   note=g6   vol=0
090:02:060 On      ch=1   note=e6   vol=127
090:02:119 On      ch=1   note=e6   vol=0
090:03:000 On      ch=1   note=f6   vol=127
090:03:119 On      ch=1   note=f6   vol=0

120:00:000 On      ch=1   note=d5   vol=49
120:00:000 On      ch=1   note=c7   vol=71
120:00:120 On      ch=1   note=b6   vol=58
120:00:132 Off     ch=1   note=c7   vol=20
120:00:240 On      ch=1   note=a6   vol=73
120:00:272 Off     ch=1   note=b6   vol=8
120:00:335 Off     ch=1   note=a6   vol=32
120:00:360 On      ch=1   note=f6   vol=61
120:00:434 Off     ch=1   note=f6   vol=12

180:00:000 On      ch=1   note=e6   vol=127
180:00:119 On      ch=1   note=e6   vol=0
180:01:000 On      ch=1   note=f6   vol=127
180:01:059 On      ch=1   note=f6   vol=0
180:01:060 On      ch=1   note=g6   vol=127
180:02:059 On      ch=1   note=g6   vol=0
180:02:060 On      ch=1   note=e6   vol=127
180:02:119 On      ch=1   note=e6   vol=0
180:03:000 On      ch=1   note=f6   vol=127
180:03:119 On      ch=1   note=f6   vol=0

210:00:000 On      ch=1   note=d5   vol=49
210:00:000 On      ch=1   note=c7   vol=71
210:00:120 On      ch=1   note=b6   vol=58
210:00:132 Off     ch=1   note=c7   vol=20
210:00:240 On      ch=1   note=a6   vol=73
210:00:272 Off     ch=1   note=b6   vol=8
210:00:335 Off     ch=1   note=a6   vol=32
210:00:360 On      ch=1   note=f6   vol=61
210:00:434 Off     ch=1   note=f6   vol=12

270:00:000 On      ch=1   note=e6   vol=127
270:00:119 On      ch=1   note=e6   vol=0
270:01:000 On      ch=1   note=f6   vol=127
270:01:059 On      ch=1   note=f6   vol=0
270:01:060 On      ch=1   note=g6   vol=127
270:02:059 On      ch=1   note=g6   vol=0
270:02:060 On      ch=1   note=e6   vol=127
270:02:119 On      ch=1   note=e6   vol=0
270:03:000 On      ch=1   note=f6   vol=127
270:03:119 On      ch=1   note=f6   vol=0

300:00:000 On      ch=1   note=d5   vol=49
300:00:000 On      ch=1   note=c7   vol=71
300:00:120 On      ch=1   note=b6   vol=58
300:00:132 Off     ch=1   note=c7   vol=20
300:00:240 On      ch=1   note=a6   vol=73
300:00:272 Off     ch=1   note=b6   vol=8
300:00:335 Off     ch=1   note=a6   vol=32
300:00:360 On      ch=1   note=f6   vol=61
300:00:434 Off     ch=1   note=f6   vol=12

360:00:000 On      ch=1   note=e6   vol=127
360:00:119 On      ch=1   note=e6   vol=0
360:01:000 On      ch=1   note=f6   vol=127
360:01:059 On      ch=1   note=f6   vol=0
360:01:060 On      ch=1   note=g6   vol=127
360:02:059 On      ch=1   note=g6   vol=0
360:02:060 On      ch=1   note=e6   vol=127
360:02:119 On      ch=1   note=e6   vol=0
360:03:000 On      ch=1   note=f6   vol=127
360:03:119 On      ch=1   note=f6   vol=0

390:00:000 On      ch=1   note=d5   vol=49
390:00:000 On      ch=1   note=c7   vol=71
390:00:120 On      ch=1   note=b6   vol=58
390:00:132 Off     ch=1   note=c7   vol=20
390:00:240 On      ch=1   note=a6   vol=73
390:00:272 Off     ch=1   note=b6   vol=8
390:00:335 Off     ch=1   note=a6   vol=32
390:00:360 On      ch=1   note=f6   vol=61
390:00:434 Off     ch=1   note=f6   vol=12

450:00:000 On      ch=1   note=e6   vol=127
450:00:119 On      ch=1   note=e6   vol=0
450:01:000 On      ch=1   note=f6   vol=127
450:01:059 On      ch=1   note=f6   vol=0
450:01:060 On      ch=1   note=g6   vol=127
450:02:059 On      ch=1   note=g6   vol=0
450:02:060 On      ch=1   note=e6   vol=127
450:02:119 On      ch=1   note=e6   vol=0
450:03:000 On      ch=1   note=f6   vol=127
450:03:119 On      ch=1   note=f6   vol=0

480:00:000 On      ch=1   note=d5   vol=49
480:00:000 On      ch=1   note=c7   vol=71
480:00:120 On      ch=1   note=b6   vol=58
480:00:132 Off     ch=1   note=c7   vol=20
480:00:240 On      ch=1   note=a6   vol=73
480:00:272 Off     ch=1   note=b6   vol=8
480:00:335 Off     ch=1   note=a6   vol=32
480:00:360 On      ch=1   note=f6   vol=61
480:00:434 Off     ch=1   note=f6   vol=12

540:00:000 On      ch=1   note=e6   vol=127
540:00:119 On      ch=1   note=e6   vol=0
540:01:000 On      ch=1   note=f6   vol=127
540:01:059 On      ch=1   note=f6   vol=0
540:01:060 On      ch=1   note=g6   vol=127
540:02:059 On      ch=1   note=g6   vol=0
540:02:060 On      ch=1   note=e6   vol=127
540:02:119 On      ch=1   note=e6   vol=0
540:03:000 On      ch=1   note=f6   vol=127
540:03:119 On      ch=1   note=f6   vol=0

570:00:000 On      ch=1   note=g5   vol=127
570:02:000 On      ch=1   note=g5   vol=0
570:02:000 On      ch=1   note=a5   vol=127
571:00:000 On      ch=1   note=a5   vol=0
571:00:000 On      ch=1   note=b5   vol=127
571:02:000 On      ch=1   note=b5   vol=0
571:02:000 On      ch=1   note=d5   vol=127
572:02:000 On      ch=1   note=d5   vol=0
572:02:000 Meta TrkEnd
TrkEnd
