MFile 1 1 192
MTrk
000:00:000 TimeSig 4/4 24 8
000:00:000 Tempo 500000
000:00:000 Meta SeqName "running/13/04-1"
000:00:000 Meta Marker "xuender"
000:00:000 Meta Copyright "https://github.com/xuender/musical-timer"

000:00:000 ProgCh  ch=1   prog=14

000:00:000 On      ch=1   note=e6   vol=127
000:00:119 On      ch=1   note=e6   vol=0
000:01:000 On      ch=1   note=f6   vol=127
000:01:059 On      ch=1   note=f6   vol=0
000:01:060 On      ch=1   note=g6   vol=127
000:02:059 On      ch=1   note=g6   vol=0
000:02:060 On      ch=1   note=e6   vol=127
000:02:119 On      ch=1   note=e6   vol=0
000:03:000 On      ch=1   note=f6   vol=127
000:03:119 On      ch=1   note=f6   vol=0

090:00:000 On      ch=1   note=d5   vol=49
090:00:000 On      ch=1   note=c7   vol=71
090:00:120 On      ch=1   note=b6   vol=58
090:00:132 Off     ch=1   note=c7   vol=20
090:00:240 On      ch=1   note=a6   vol=73
090:00:272 Off     ch=1   note=b6   vol=8
090:00:335 Off     ch=1   note=a6   vol=32
090:00:360 On      ch=1   note=f6   vol=61
090:00:434 Off     ch=1   note=f6   vol=12

150:00:000 On      ch=1   note=e6   vol=127
150:00:119 On      ch=1   note=e6   vol=0
150:01:000 On      ch=1   note=f6   vol=127
150:01:059 On      ch=1   note=f6   vol=0
150:01:060 On      ch=1   note=g6   vol=127
150:02:059 On      ch=1   note=g6   vol=0
150:02:060 On      ch=1   note=e6   vol=127
150:02:119 On      ch=1   note=e6   vol=0
150:03:000 On      ch=1   note=f6   vol=127
150:03:119 On      ch=1   note=f6   vol=0

240:00:000 On      ch=1   note=d5   vol=49
240:00:000 On      ch=1   note=c7   vol=71
240:00:120 On      ch=1   note=b6   vol=58
240:00:132 Off     ch=1   note=c7   vol=20
240:00:240 On      ch=1   note=a6   vol=73
240:00:272 Off     ch=1   note=b6   vol=8
240:00:335 Off     ch=1   note=a6   vol=32
240:00:360 On      ch=1   note=f6   vol=61
240:00:434 Off     ch=1   note=f6   vol=12

300:00:000 On      ch=1   note=e6   vol=127
300:00:119 On      ch=1   note=e6   vol=0
300:01:000 On      ch=1   note=f6   vol=127
300:01:059 On      ch=1   note=f6   vol=0
300:01:060 On      ch=1   note=g6   vol=127
300:02:059 On      ch=1   note=g6   vol=0
300:02:060 On      ch=1   note=e6   vol=127
300:02:119 On      ch=1   note=e6   vol=0
300:03:000 On      ch=1   note=f6   vol=127
300:03:119 On      ch=1   note=f6   vol=0

390:00:000 On      ch=1   note=d5   vol=49
390:00:000 On      ch=1   note=c7   vol=71
390:00:120 On      ch=1   note=b6   vol=58
390:00:132 Off     ch=1   note=c7   vol=20
390:00:240 On      ch=1   note=a6   vol=73
390:00:272 Off     ch=1   note=b6   vol=8
390:00:335 Off     ch=1   note=a6   vol=32
390:00:360 On      ch=1   note=f6   vol=61
390:00:434 Off     ch=1   note=f6   vol=12

450:00:000 On      ch=1   note=e6   vol=127
450:00:119 On      ch=1   note=e6   vol=0
450:01:000 On      ch=1   note=f6   vol=127
450:01:059 On      ch=1   note=f6   vol=0
450:01:060 On      ch=1   note=g6   vol=127
450:02:059 On      ch=1   note=g6   vol=0
450:02:060 On      ch=1   note=e6   vol=127
450:02:119 On      ch=1   note=e6   vol=0
450:03:000 On      ch=1   note=f6   vol=127
450:03:119 On      ch=1   note=f6   vol=0

540:00:000 On      ch=1   note=d5   vol=49
540:00:000 On      ch=1   note=c7   vol=71
540:00:120 On      ch=1   note=b6   vol=58
540:00:132 Off     ch=1   note=c7   vol=20
540:00:240 On      ch=1   note=a6   vol=73
540:00:272 Off     ch=1   note=b6   vol=8
540:00:335 Off     ch=1   note=a6   vol=32
540:00:360 On      ch=1   note=f6   vol=61
540:00:434 Off     ch=1   note=f6   vol=12

600:00:000 On      ch=1   note=e6   vol=127
600:00:119 On      ch=1   note=e6   vol=0
600:01:000 On      ch=1   note=f6   vol=127
600:01:059 On      ch=1   note=f6   vol=0
600:01:060 On      ch=1   note=g6   vol=127
600:02:059 On      ch=1   note=g6   vol=0
600:02:060 On      ch=1   note=e6   vol=127
600:02:119 On      ch=1   note=e6   vol=0
600:03:000 On      ch=1   note=f6   vol=127
600:03:119 On      ch=1   note=f6   vol=0

690:00:000 On      ch=1   note=d5   vol=49
690:00:000 On      ch=1   note=c7   vol=71
690:00:120 On      ch=1   note=b6   vol=58
690:00:132 Off     ch=1   note=c7   vol=20
690:00:240 On      ch=1   note=a6   vol=73
690:00:272 Off     ch=1   note=b6   vol=8
690:00:335 Off     ch=1   note=a6   vol=32
690:00:360 On      ch=1   note=f6   vol=61
690:00:434 Off     ch=1   note=f6   vol=12

750:00:000 On      ch=1   note=e6   vol=127
750:00:119 On      ch=1   note=e6   vol=0
750:01:000 On      ch=1   note=f6   vol=127
750:01:059 On      ch=1   note=f6   vol=0
750:01:060 On      ch=1   note=g6   vol=127
750:02:059 On      ch=1   note=g6   vol=0
750:02:060 On      ch=1   note=e6   vol=127
750:02:119 On      ch=1   note=e6   vol=0
750:03:000 On      ch=1   note=f6   vol=127
750:03:119 On      ch=1   note=f6   vol=0

840:00:000 On      ch=1   note=g5   vol=127
840:02:000 On      ch=1   note=g5   vol=0
840:02:000 On      ch=1   note=a5   vol=127
841:00:000 On      ch=1   note=a5   vol=0
841:00:000 On      ch=1   note=b5   vol=127
841:02:000 On      ch=1   note=b5   vol=0
841:02:000 On      ch=1   note=d5   vol=127
842:02:000 On      ch=1   note=d5   vol=0
842:02:000 Meta TrkEnd
TrkEnd