MFile 1 1 192
MTrk
000:00:000 TimeSig 4/4 24 8
000:00:000 Tempo 500000
000:00:000 Meta SeqName "running/13/04-3"
000:00:000 Meta Marker "xuender"
000:00:000 Meta Copyright "https://github.com/xuender/musical-timer"

000:00:000 ProgCh  ch=1   prog=14

000:00:000 On      ch=1   note=e6   vol=127
000:00:119 On      ch=1   note=e6   vol=0
000:01:000 On      ch=1   note=f6   vol=127
000:01:059 On      ch=1   note=f6   vol=0
000:01:060 On      ch=1   note=g6   vol=127
000:02:059 On      ch=1   note=g6   vol=0
000:02:060 On      ch=1   note=e6   vol=127
000:02:119 On      ch=1   note=e6   vol=0
000:03:000 On      ch=1   note=f6   vol=127
000:03:119 On      ch=1   note=f6   vol=0

060:00:000 On      ch=1   note=d5   vol=49
060:00:000 On      ch=1   note=c7   vol=71
060:00:120 On      ch=1   note=b6   vol=58
060:00:132 Off     ch=1   note=c7   vol=20
060:00:240 On      ch=1   note=a6   vol=73
060:00:272 Off     ch=1   note=b6   vol=8
060:00:335 Off     ch=1   note=a6   vol=32
060:00:360 On      ch=1   note=f6   vol=61
060:00:434 Off     ch=1   note=f6   vol=12

150:00:000 On      ch=1   note=e6   vol=127
150:00:119 On      ch=1   note=e6   vol=0
150:01:000 On      ch=1   note=f6   vol=127
150:01:059 On      ch=1   note=f6   vol=0
150:01:060 On      ch=1   note=g6   vol=127
150:02:059 On      ch=1   note=g6   vol=0
150:02:060 On      ch=1   note=e6   vol=127
150:02:119 On      ch=1   note=e6   vol=0
150:03:000 On      ch=1   note=f6   vol=127
150:03:119 On      ch=1   note=f6   vol=0

210:00:000 On      ch=1   note=d5   vol=49
210:00:000 On      ch=1   note=c7   vol=71
210:00:120 On      ch=1   note=b6   vol=58
210:00:132 Off     ch=1   note=c7   vol=20
210:00:240 On      ch=1   note=a6   vol=73
210:00:272 Off     ch=1   note=b6   vol=8
210:00:335 Off     ch=1   note=a6   vol=32
210:00:360 On      ch=1   note=f6   vol=61
210:00:434 Off     ch=1   note=f6   vol=12

300:00:000 On      ch=1   note=e6   vol=127
300:00:119 On      ch=1   note=e6   vol=0
300:01:000 On      ch=1   note=f6   vol=127
300:01:059 On      ch=1   note=f6   vol=0
300:01:060 On      ch=1   note=g6   vol=127
300:02:059 On      ch=1   note=g6   vol=0
300:02:060 On      ch=1   note=e6   vol=127
300:02:119 On      ch=1   note=e6   vol=0
300:03:000 On      ch=1   note=f6   vol=127
300:03:119 On      ch=1   note=f6   vol=0

360:00:000 On      ch=1   note=d5   vol=49
360:00:000 On      ch=1   note=c7   vol=71
360:00:120 On      ch=1   note=b6   vol=58
360:00:132 Off     ch=1   note=c7   vol=20
360:00:240 On      ch=1   note=a6   vol=73
360:00:272 Off     ch=1   note=b6   vol=8
360:00:335 Off     ch=1   note=a6   vol=32
360:00:360 On      ch=1   note=f6   vol=61
360:00:434 Off     ch=1   note=f6   vol=12

450:00:000 On      ch=1   note=e6   vol=127
450:00:119 On      ch=1   note=e6   vol=0
450:01:000 On      ch=1   note=f6   vol=127
450:01:059 On      ch=1   note=f6   vol=0
450:01:060 On      ch=1   note=g6   vol=127
450:02:059 On      ch=1   note=g6   vol=0
450:02:060 On      ch=1   note=e6   vol=127
450:02:119 On      ch=1   note=e6   vol=0
450:03:000 On      ch=1   note=f6   vol=127
450:03:119 On      ch=1   note=f6   vol=0

510:00:000 On      ch=1   note=d5   vol=49
510:00:000 On      ch=1   note=c7   vol=71
510:00:120 On      ch=1   note=b6   vol=58
510:00:132 Off     ch=1   note=c7   vol=20
510:00:240 On      ch=1   note=a6   vol=73
510:00:272 Off     ch=1   note=b6   vol=8
510:00:335 Off     ch=1   note=a6   vol=32
510:00:360 On      ch=1   note=f6   vol=61
510:00:434 Off     ch=1   note=f6   vol=12

600:00:000 On      ch=1   note=e6   vol=127
600:00:119 On      ch=1   note=e6   vol=0
600:01:000 On      ch=1   note=f6   vol=127
600:01:059 On      ch=1   note=f6   vol=0
600:01:060 On      ch=1   note=g6   vol=127
600:02:059 On      ch=1   note=g6   vol=0
600:02:060 On      ch=1   note=e6   vol=127
600:02:119 On      ch=1   note=e6   vol=0
600:03:000 On      ch=1   note=f6   vol=127
600:03:119 On      ch=1   note=f6   vol=0

660:00:000 On      ch=1   note=d5   vol=49
660:00:000 On      ch=1   note=c7   vol=71
660:00:120 On      ch=1   note=b6   vol=58
660:00:132 Off     ch=1   note=c7   vol=20
660:00:240 On      ch=1   note=a6   vol=73
660:00:272 Off     ch=1   note=b6   vol=8
660:00:335 Off     ch=1   note=a6   vol=32
660:00:360 On      ch=1   note=f6   vol=61
660:00:434 Off     ch=1   note=f6   vol=12

750:00:000 On      ch=1   note=e6   vol=127
750:00:119 On      ch=1   note=e6   vol=0
750:01:000 On      ch=1   note=f6   vol=127
750:01:059 On      ch=1   note=f6   vol=0
750:01:060 On      ch=1   note=g6   vol=127
750:02:059 On      ch=1   note=g6   vol=0
750:02:060 On      ch=1   note=e6   vol=127
750:02:119 On      ch=1   note=e6   vol=0
750:03:000 On      ch=1   note=f6   vol=127
750:03:119 On      ch=1   note=f6   vol=0

810:00:000 On      ch=1   note=g5   vol=127
810:02:000 On      ch=1   note=g5   vol=0
810:02:000 On      ch=1   note=a5   vol=127
811:00:000 On      ch=1   note=a5   vol=0
811:00:000 On      ch=1   note=b5   vol=127
811:02:000 On      ch=1   note=b5   vol=0
811:02:000 On      ch=1   note=d5   vol=127
812:02:000 On      ch=1   note=d5   vol=0
812:02:000 Meta TrkEnd
TrkEnd
