MFile 1 1 192
MTrk
000:00:000 TimeSig 4/4 24 8
000:00:000 Tempo 500000
000:00:000 Meta SeqName "running/13/05-1"
000:00:000 Meta Marker "xuender"
000:00:000 Meta Copyright "https://github.com/xuender/musical-timer"

000:00:000 ProgCh  ch=1   prog=14

000:00:000 On      ch=1   note=e6   vol=127
000:00:119 On      ch=1   note=e6   vol=0
000:01:000 On      ch=1   note=f6   vol=127
000:01:059 On      ch=1   note=f6   vol=0
000:01:060 On      ch=1   note=g6   vol=127
000:02:059 On      ch=1   note=g6   vol=0
000:02:060 On      ch=1   note=e6   vol=127
000:02:119 On      ch=1   note=e6   vol=0
000:03:000 On      ch=1   note=f6   vol=127
000:03:119 On      ch=1   note=f6   vol=0

090:00:000 On      ch=1   note=d5   vol=49
090:00:000 On      ch=1   note=c7   vol=71
090:00:120 On      ch=1   note=b6   vol=58
090:00:132 Off     ch=1   note=c7   vol=20
090:00:240 On      ch=1   note=a6   vol=73
090:00:272 Off     ch=1   note=b6   vol=8
090:00:335 Off     ch=1   note=a6   vol=32
090:00:360 On      ch=1   note=f6   vol=61
090:00:434 Off     ch=1   note=f6   vol=12

120:00:000 On      ch=1   note=e6   vol=127
120:00:119 On      ch=1   note=e6   vol=0
120:01:000 On      ch=1   note=f6   vol=127
120:01:059 On      ch=1   note=f6   vol=0
120:01:060 On      ch=1   note=g6   vol=127
120:02:059 On      ch=1   note=g6   vol=0
120:02:060 On      ch=1   note=e6   vol=127
120:02:119 On      ch=1   note=e6   vol=0
120:03:000 On      ch=1   note=f6   vol=127
120:03:119 On      ch=1   note=f6   vol=0

210:00:000 On      ch=1   note=d5   vol=49
210:00:000 On      ch=1   note=c7   vol=71
210:00:120 On      ch=1   note=b6   vol=58
210:00:132 Off     ch=1   note=c7   vol=20
210:00:240 On      ch=1   note=a6   vol=73
210:00:272 Off     ch=1   note=b6   vol=8
210:00:335 Off     ch=1   note=a6   vol=32
210:00:360 On      ch=1   note=f6   vol=61
210:00:434 Off     ch=1   note=f6   vol=12

240:00:000 On      ch=1   note=e6   vol=127
240:00:119 On      ch=1   note=e6   vol=0
240:01:000 On      ch=1   note=f6   vol=127
240:01:059 On      ch=1   note=f6   vol=0
240:01:060 On      ch=1   note=g6   vol=127
240:02:059 On      ch=1   note=g6   vol=0
240:02:060 On      ch=1   note=e6   vol=127
240:02:119 On      ch=1   note=e6   vol=0
240:03:000 On      ch=1   note=f6   vol=127
240:03:119 On      ch=1   note=f6   vol=0

330:00:000 On      ch=1   note=d5   vol=49
330:00:000 On      ch=1   note=c7   vol=71
330:00:120 On      ch=1   note=b6   vol=58
330:00:132 Off     ch=1   note=c7   vol=20
330:00:240 On      ch=1   note=a6   vol=73
330:00:272 Off     ch=1   note=b6   vol=8
330:00:335 Off     ch=1   note=a6   vol=32
330:00:360 On      ch=1   note=f6   vol=61
330:00:434 Off     ch=1   note=f6   vol=12

360:00:000 On      ch=1   note=e6   vol=127
360:00:119 On      ch=1   note=e6   vol=0
360:01:000 On      ch=1   note=f6   vol=127
360:01:059 On      ch=1   note=f6   vol=0
360:01:060 On      ch=1   note=g6   vol=127
360:02:059 On      ch=1   note=g6   vol=0
360:02:060 On      ch=1   note=e6   vol=127
360:02:119 On      ch=1   note=e6   vol=0
360:03:000 On      ch=1   note=f6   vol=127
360:03:119 On      ch=1   note=f6   vol=0

450:00:000 On      ch=1   note=d5   vol=49
450:00:000 On      ch=1   note=c7   vol=71
450:00:120 On      ch=1   note=b6   vol=58
450:00:132 Off     ch=1   note=c7   vol=20
450:00:240 On      ch=1   note=a6   vol=73
450:00:272 Off     ch=1   note=b6   vol=8
450:00:335 Off     ch=1   note=a6   vol=32
450:00:360 On      ch=1   note=f6   vol=61
450:00:434 Off     ch=1   note=f6   vol=12

480:00:000 On      ch=1   note=e6   vol=127
480:00:119 On      ch=1   note=e6   vol=0
480:01:000 On      ch=1   note=f6   vol=127
480:01:059 On      ch=1   note=f6   vol=0
480:01:060 On      ch=1   note=g6   vol=127
480:02:059 On      ch=1   note=g6   vol=0
480:02:060 On      ch=1   note=e6   vol=127
480:02:119 On      ch=1   note=e6   vol=0
480:03:000 On      ch=1   note=f6   vol=127
480:03:119 On      ch=1   note=f6   vol=0

570:00:000 On      ch=1   note=d5   vol=49
570:00:000 On      ch=1   note=c7   vol=71
570:00:120 On      ch=1   note=b6   vol=58
570:00:132 Off     ch=1   note=c7   vol=20
570:00:240 On      ch=1   note=a6   vol=73
570:00:272 Off     ch=1   note=b6   vol=8
570:00:335 Off     ch=1   note=a6   vol=32
570:00:360 On      ch=1   note=f6   vol=61
570:00:434 Off     ch=1   note=f6   vol=12

600:00:000 On      ch=1   note=e6   vol=127
600:00:119 On      ch=1   note=e6   vol=0
600:01:000 On      ch=1   note=f6   vol=127
600:01:059 On      ch=1   note=f6   vol=0
600:01:060 On      ch=1   note=g6   vol=127
600:02:059 On      ch=1   note=g6   vol=0
600:02:060 On      ch=1   note=e6   vol=127
600:02:119 On      ch=1   note=e6   vol=0
600:03:000 On      ch=1   note=f6   vol=127
600:03:119 On      ch=1   note=f6   vol=0

690:00:000 On      ch=1   note=d5   vol=49
690:00:000 On      ch=1   note=c7   vol=71
690:00:120 On      ch=1   note=b6   vol=58
690:00:132 Off     ch=1   note=c7   vol=20
690:00:240 On      ch=1   note=a6   vol=73
690:00:272 Off     ch=1   note=b6   vol=8
690:00:335 Off     ch=1   note=a6   vol=32
690:00:360 On      ch=1   note=f6   vol=61
690:00:434 Off     ch=1   note=f6   vol=12

720:00:000 On      ch=1   note=e6   vol=127
720:00:119 On      ch=1   note=e6   vol=0
720:01:000 On      ch=1   note=f6   vol=127
720:01:059 On      ch=1   note=f6   vol=0
720:01:060 On      ch=1   note=g6   vol=127
720:02:059 On      ch=1   note=g6   vol=0
720:02:060 On      ch=1   note=e6   vol=127
720:02:119 On      ch=1   note=e6   vol=0
720:03:000 On      ch=1   note=f6   vol=127
720:03:119 On      ch=1   note=f6   vol=0

810:00:000 On      ch=1   note=d5   vol=49
810:00:000 On      ch=1   note=c7   vol=71
810:00:120 On      ch=1   note=b6   vol=58
810:00:132 Off     ch=1   note=c7   vol=20
810:00:240 On      ch=1   note=a6   vol=73
810:00:272 Off     ch=1   note=b6   vol=8
810:00:335 Off     ch=1   note=a6   vol=32
810:00:360 On      ch=1   note=f6   vol=61
810:00:434 Off     ch=1   note=f6   vol=12

840:00:000 On      ch=1   note=e6   vol=127
840:00:119 On      ch=1   note=e6   vol=0
840:01:000 On      ch=1   note=f6   vol=127
840:01:059 On      ch=1   note=f6   vol=0
840:01:060 On      ch=1   note=g6   vol=127
840:02:059 On      ch=1   note=g6   vol=0
840:02:060 On      ch=1   note=e6   vol=127
840:02:119 On      ch=1   note=e6   vol=0
840:03:000 On      ch=1   note=f6   vol=127
840:03:119 On      ch=1   note=f6   vol=0

930:00:000 On      ch=1   note=d5   vol=49
930:00:000 On      ch=1   note=c7   vol=71
930:00:120 On      ch=1   note=b6   vol=58
930:00:132 Off     ch=1   note=c7   vol=20
930:00:240 On      ch=1   note=a6   vol=73
930:00:272 Off     ch=1   note=b6   vol=8
930:00:335 Off     ch=1   note=a6   vol=32
930:00:360 On      ch=1   note=f6   vol=61
930:00:434 Off     ch=1   note=f6   vol=12

960:00:000 On      ch=1   note=e6   vol=127
960:00:119 On      ch=1   note=e6   vol=0
960:01:000 On      ch=1   note=f6   vol=127
960:01:059 On      ch=1   note=f6   vol=0
960:01:060 On      ch=1   note=g6   vol=127
960:02:059 On      ch=1   note=g6   vol=0
960:02:060 On      ch=1   note=e6   vol=127
960:02:119 On      ch=1   note=e6   vol=0
960:03:000 On      ch=1   note=f6   vol=127
960:03:119 On      ch=1   note=f6   vol=0

1050:00:000 On      ch=1   note=g5   vol=127
1050:02:000 On      ch=1   note=g5   vol=0
1050:02:000 On      ch=1   note=a5   vol=127
1051:00:000 On      ch=1   note=a5   vol=0
1051:00:000 On      ch=1   note=b5   vol=127
1051:02:000 On      ch=1   note=b5   vol=0
1051:02:000 On      ch=1   note=d5   vol=127
1052:02:000 On      ch=1   note=d5   vol=0
1052:02:000 Meta TrkEnd
TrkEnd
