MFile 1 1 192
MTrk
000:00:000 TimeSig 4/4 24 8
000:00:000 Tempo 500000
000:00:000 Meta SeqName "running/13/05-2"
000:00:000 Meta Marker "xuender"
000:00:000 Meta Copyright "https://github.com/xuender/musical-timer"

000:00:000 ProgCh  ch=1   prog=14

000:00:000 On      ch=1   note=e6   vol=127
000:00:119 On      ch=1   note=e6   vol=0
000:01:000 On      ch=1   note=f6   vol=127
000:01:059 On      ch=1   note=f6   vol=0
000:01:060 On      ch=1   note=g6   vol=127
000:02:059 On      ch=1   note=g6   vol=0
000:02:060 On      ch=1   note=e6   vol=127
000:02:119 On      ch=1   note=e6   vol=0
000:03:000 On      ch=1   note=f6   vol=127
000:03:119 On      ch=1   note=f6   vol=0

060:00:000 On      ch=1   note=d5   vol=49
060:00:000 On      ch=1   note=c7   vol=71
060:00:120 On      ch=1   note=b6   vol=58
060:00:132 Off     ch=1   note=c7   vol=20
060:00:240 On      ch=1   note=a6   vol=73
060:00:272 Off     ch=1   note=b6   vol=8
060:00:335 Off     ch=1   note=a6   vol=32
060:00:360 On      ch=1   note=f6   vol=61
060:00:434 Off     ch=1   note=f6   vol=12

090:00:000 On      ch=1   note=e6   vol=127
090:00:119 On      ch=1   note=e6   vol=0
090:01:000 On      ch=1   note=f6   vol=127
090:01:059 On      ch=1   note=f6   vol=0
090:01:060 On      ch=1   note=g6   vol=127
090:02:059 On      ch=1   note=g6   vol=0
090:02:060 On      ch=1   note=e6   vol=127
090:02:119 On      ch=1   note=e6   vol=0
090:03:000 On      ch=1   note=f6   vol=127
090:03:119 On      ch=1   note=f6   vol=0

150:00:000 On      ch=1   note=d5   vol=49
150:00:000 On      ch=1   note=c7   vol=71
150:00:120 On      ch=1   note=b6   vol=58
150:00:132 Off     ch=1   note=c7   vol=20
150:00:240 On      ch=1   note=a6   vol=73
150:00:272 Off     ch=1   note=b6   vol=8
150:00:335 Off     ch=1   note=a6   vol=32
150:00:360 On      ch=1   note=f6   vol=61
150:00:434 Off     ch=1   note=f6   vol=12

180:00:000 On      ch=1   note=e6   vol=127
180:00:119 On      ch=1   note=e6   vol=0
180:01:000 On      ch=1   note=f6   vol=127
180:01:059 On      ch=1   note=f6   vol=0
180:01:060 On      ch=1   note=g6   vol=127
180:02:059 On      ch=1   note=g6   vol=0
180:02:060 On      ch=1   note=e6   vol=127
180:02:119 On      ch=1   note=e6   vol=0
180:03:000 On      ch=1   note=f6   vol=127
180:03:119 On      ch=1   note=f6   vol=0

240:00:000 On      ch=1   note=d5   vol=49
240:00:000 On      ch=1   note=c7   vol=71
240:00:120 On      ch=1   note=b6   vol=58
240:00:132 Off     ch=1   note=c7   vol=20
240:00:240 On      ch=1   note=a6   vol=73
240:00:272 Off     ch=1   note=b6   vol=8
240:00:335 Off     ch=1   note=a6   vol=32
240:00:360 On      ch=1   note=f6   vol=61
240:00:434 Off     ch=1   note=f6   vol=12

270:00:000 On      ch=1   note=e6   vol=127
270:00:119 On      ch=1   note=e6   vol=0
270:01:000 On      ch=1   note=f6   vol=127
270:01:059 On      ch=1   note=f6   vol=0
270:01:060 On      ch=1   note=g6   vol=127
270:02:059 On      ch=1   note=g6   vol=0
270:02:060 On      ch=1   note=e6   vol=127
270:02:119 On      ch=1   note=e6   vol=0
270:03:000 On      ch=1   note=f6   vol=127
270:03:119 On      ch=1   note=f6   vol=0

330:00:000 On      ch=1   note=d5   vol=49
330:00:000 On      ch=1   note=c7   vol=71
330:00:120 On      ch=1   note=b6   vol=58
330:00:132 Off     ch=1   note=c7   vol=20
330:00:240 On      ch=1   note=a6   vol=73
330:00:272 Off     ch=1   note=b6   vol=8
330:00:335 Off     ch=1   note=a6   vol=32
330:00:360 On      ch=1   note=f6   vol=61
330:00:434 Off     ch=1   note=f6   vol=12

360:00:000 On      ch=1   note=e6   vol=127
360:00:119 On      ch=1   note=e6   vol=0
360:01:000 On      ch=1   note=f6   vol=127
360:01:059 On      ch=1   note=f6   vol=0
360:01:060 On      ch=1   note=g6   vol=127
360:02:059 On      ch=1   note=g6   vol=0
360:02:060 On      ch=1   note=e6   vol=127
360:02:119 On      ch=1   note=e6   vol=0
360:03:000 On      ch=1   note=f6   vol=127
360:03:119 On      ch=1   note=f6   vol=0

420:00:000 On      ch=1   note=d5   vol=49
420:00:000 On      ch=1   note=c7   vol=71
420:00:120 On      ch=1   note=b6   vol=58
420:00:132 Off     ch=1   note=c7   vol=20
420:00:240 On      ch=1   note=a6   vol=73
420:00:272 Off     ch=1   note=b6   vol=8
420:00:335 Off     ch=1   note=a6   vol=32
420:00:360 On      ch=1   note=f6   vol=61
420:00:434 Off     ch=1   note=f6   vol=12

450:00:000 On      ch=1   note=e6   vol=127
450:00:119 On      ch=1   note=e6   vol=0
450:01:000 On      ch=1   note=f6   vol=127
450:01:059 On      ch=1   note=f6   vol=0
450:01:060 On      ch=1   note=g6   vol=127
450:02:059 On      ch=1   note=g6   vol=0
450:02:060 On      ch=1   note=e6   vol=127
450:02:119 On      ch=1   note=e6   vol=0
450:03:000 On      ch=1   note=f6   vol=127
450:03:119 On      ch=1   note=f6   vol=0

510:00:000 On      ch=1   note=d5   vol=49
510:00:000 On      ch=1   note=c7   vol=71
510:00:120 On      ch=1   note=b6   vol=58
510:00:132 Off     ch=1   note=c7   vol=20
510:00:240 On      ch=1   note=a6   vol=73
510:00:272 Off     ch=1   note=b6   vol=8
510:00:335 Off     ch=1   note=a6   vol=32
510:00:360 On      ch=1   note=f6   vol=61
510:00:434 Off     ch=1   note=f6   vol=12

540:00:000 On      ch=1   note=e6   vol=127
540:00:119 On      ch=1   note=e6   vol=0
540:01:000 On      ch=1   note=f6   vol=127
540:01:059 On      ch=1   note=f6   vol=0
540:01:060 On      ch=1   note=g6   vol=127
540:02:059 On      ch=1   note=g6   vol=0
540:02:060 On      ch=1   note=e6   vol=127
540:02:119 On      ch=1   note=e6   vol=0
540:03:000 On      ch=1   note=f6   vol=127
540:03:119 On      ch=1   note=f6   vol=0

600:00:000 On      ch=1   note=d5   vol=49
600:00:000 On      ch=1   note=c7   vol=71
600:00:120 On      ch=1   note=b6   vol=58
600:00:132 Off     ch=1   note=c7   vol=20
600:00:240 On      ch=1   note=a6   vol=73
600:00:272 Off     ch=1   note=b6   vol=8
600:00:335 Off     ch=1   note=a6   vol=32
600:00:360 On      ch=1   note=f6   vol=61
600:00:434 Off     ch=1   note=f6   vol=12

630:00:000 On      ch=1   note=e6   vol=127
630:00:119 On      ch=1   note=e6   vol=0
630:01:000 On      ch=1   note=f6   vol=127
630:01:059 On      ch=1   note=f6   vol=0
630:01:060 On      ch=1   note=g6   vol=127
630:02:059 On      ch=1   note=g6   vol=0
630:02:060 On      ch=1   note=e6   vol=127
630:02:119 On      ch=1   note=e6   vol=0
630:03:000 On      ch=1   note=f6   vol=127
630:03:119 On      ch=1   note=f6   vol=0

690:00:000 On      ch=1   note=g5   vol=127
690:02:000 On      ch=1   note=g5   vol=0
690:02:000 On      ch=1   note=a5   vol=127
691:00:000 On      ch=1   note=a5   vol=0
691:00:000 On      ch=1   note=b5   vol=127
691:02:000 On      ch=1   note=b5   vol=0
691:02:000 On      ch=1   note=d5   vol=127
692:02:000 On      ch=1   note=d5   vol=0
692:02:000 Meta TrkEnd
TrkEnd
