MFile 1 1 192
MTrk
000:00:000 TimeSig 4/4 24 8
000:00:000 Tempo 500000
000:00:000 Meta SeqName "running/13/07-3B"
000:00:000 Meta Marker "xuender"
000:00:000 Meta Copyright "https://github.com/xuender/musical-timer"

000:00:000 ProgCh  ch=1   prog=14

000:00:000 On      ch=1   note=e6   vol=127
000:00:119 On      ch=1   note=e6   vol=0
000:01:000 On      ch=1   note=f6   vol=127
000:01:059 On      ch=1   note=f6   vol=0
000:01:060 On      ch=1   note=g6   vol=127
000:02:059 On      ch=1   note=g6   vol=0
000:02:060 On      ch=1   note=e6   vol=127
000:02:119 On      ch=1   note=e6   vol=0
000:03:000 On      ch=1   note=f6   vol=127
000:03:119 On      ch=1   note=f6   vol=0

120:00:000 On      ch=1   note=d5   vol=49
120:00:000 On      ch=1   note=c7   vol=71
120:00:120 On      ch=1   note=b6   vol=58
120:00:132 Off     ch=1   note=c7   vol=20
120:00:240 On      ch=1   note=a6   vol=73
120:00:272 Off     ch=1   note=b6   vol=8
120:00:335 Off     ch=1   note=a6   vol=32
120:00:360 On      ch=1   note=f6   vol=61
120:00:434 Off     ch=1   note=f6   vol=12

150:00:000 On      ch=1   note=e6   vol=127
150:00:119 On      ch=1   note=e6   vol=0
150:01:000 On      ch=1   note=f6   vol=127
150:01:059 On      ch=1   note=f6   vol=0
150:01:060 On      ch=1   note=g6   vol=127
150:02:059 On      ch=1   note=g6   vol=0
150:02:060 On      ch=1   note=e6   vol=127
150:02:119 On      ch=1   note=e6   vol=0
150:03:000 On      ch=1   note=f6   vol=127
150:03:119 On      ch=1   note=f6   vol=0

270:00:000 On      ch=1   note=d5   vol=49
270:00:000 On      ch=1   note=c7   vol=71
270:00:120 On      ch=1   note=b6   vol=58
270:00:132 Off     ch=1   note=c7   vol=20
270:00:240 On      ch=1   note=a6   vol=73
270:00:272 Off     ch=1   note=b6   vol=8
270:00:335 Off     ch=1   note=a6   vol=32
270:00:360 On      ch=1   note=f6   vol=61
270:00:434 Off     ch=1   note=f6   vol=12

300:00:000 On      ch=1   note=e6   vol=127
300:00:119 On      ch=1   note=e6   vol=0
300:01:000 On      ch=1   note=f6   vol=127
300:01:059 On      ch=1   note=f6   vol=0
300:01:060 On      ch=1   note=g6   vol=127
300:02:059 On      ch=1   note=g6   vol=0
300:02:060 On      ch=1   note=e6   vol=127
300:02:119 On      ch=1   note=e6   vol=0
300:03:000 On      ch=1   note=f6   vol=127
300:03:119 On      ch=1   note=f6   vol=0

420:00:000 On      ch=1   note=d5   vol=49
420:00:000 On      ch=1   note=c7   vol=71
420:00:120 On      ch=1   note=b6   vol=58
420:00:132 Off     ch=1   note=c7   vol=20
420:00:240 On      ch=1   note=a6   vol=73
420:00:272 Off     ch=1   note=b6   vol=8
420:00:335 Off     ch=1   note=a6   vol=32
420:00:360 On      ch=1   note=f6   vol=61
420:00:434 Off     ch=1   note=f6   vol=12

450:00:000 On      ch=1   note=e6   vol=127
450:00:119 On      ch=1   note=e6   vol=0
450:01:000 On      ch=1   note=f6   vol=127
450:01:059 On      ch=1   note=f6   vol=0
450:01:060 On      ch=1   note=g6   vol=127
450:02:059 On      ch=1   note=g6   vol=0
450:02:060 On      ch=1   note=e6   vol=127
450:02:119 On      ch=1   note=e6   vol=0
450:03:000 On      ch=1   note=f6   vol=127
450:03:119 On      ch=1   note=f6   vol=0

570:00:000 On      ch=1   note=d5   vol=49
570:00:000 On      ch=1   note=c7   vol=71
570:00:120 On      ch=1   note=b6   vol=58
570:00:132 Off     ch=1   note=c7   vol=20
570:00:240 On      ch=1   note=a6   vol=73
570:00:272 Off     ch=1   note=b6   vol=8
570:00:335 Off     ch=1   note=a6   vol=32
570:00:360 On      ch=1   note=f6   vol=61
570:00:434 Off     ch=1   note=f6   vol=12

600:00:000 On      ch=1   note=e6   vol=127
600:00:119 On      ch=1   note=e6   vol=0
600:01:000 On      ch=1   note=f6   vol=127
600:01:059 On      ch=1   note=f6   vol=0
600:01:060 On      ch=1   note=g6   vol=127
600:02:059 On      ch=1   note=g6   vol=0
600:02:060 On      ch=1   note=e6   vol=127
600:02:119 On      ch=1   note=e6   vol=0
600:03:000 On      ch=1   note=f6   vol=127
600:03:119 On      ch=1   note=f6   vol=0

720:00:000 On      ch=1   note=d5   vol=49
720:00:000 On      ch=1   note=c7   vol=71
720:00:120 On      ch=1   note=b6   vol=58
720:00:132 Off     ch=1   note=c7   vol=20
720:00:240 On      ch=1   note=a6   vol=73
720:00:272 Off     ch=1   note=b6   vol=8
720:00:335 Off     ch=1   note=a6   vol=32
720:00:360 On      ch=1   note=f6   vol=61
720:00:434 Off     ch=1   note=f6   vol=12

750:00:000 On      ch=1   note=e6   vol=127
750:00:119 On      ch=1   note=e6   vol=0
750:01:000 On      ch=1   note=f6   vol=127
750:01:059 On      ch=1   note=f6   vol=0
750:01:060 On      ch=1   note=g6   vol=127
750:02:059 On      ch=1   note=g6   vol=0
750:02:060 On      ch=1   note=e6   vol=127
750:02:119 On      ch=1   note=e6   vol=0
750:03:000 On      ch=1   note=f6   vol=127
750:03:119 On      ch=1   note=f6   vol=0

870:00:000 On      ch=1   note=d5   vol=49
870:00:000 On      ch=1   note=c7   vol=71
870:00:120 On      ch=1   note=b6   vol=58
870:00:132 Off     ch=1   note=c7   vol=20
870:00:240 On      ch=1   note=a6   vol=73
870:00:272 Off     ch=1   note=b6   vol=8
870:00:335 Off     ch=1   note=a6   vol=32
870:00:360 On      ch=1   note=f6   vol=61
870:00:434 Off     ch=1   note=f6   vol=12

900:00:000 On      ch=1   note=e6   vol=127
900:00:119 On      ch=1   note=e6   vol=0
900:01:000 On      ch=1   note=f6   vol=127
900:01:059 On      ch=1   note=f6   vol=0
900:01:060 On      ch=1   note=g6   vol=127
900:02:059 On      ch=1   note=g6   vol=0
900:02:060 On      ch=1   note=e6   vol=127
900:02:119 On      ch=1   note=e6   vol=0
900:03:000 On      ch=1   note=f6   vol=127
900:03:119 On      ch=1   note=f6   vol=0

1020:00:000 On      ch=1   note=d5   vol=49
1020:00:000 On      ch=1   note=c7   vol=71
1020:00:120 On      ch=1   note=b6   vol=58
1020:00:132 Off     ch=1   note=c7   vol=20
1020:00:240 On      ch=1   note=a6   vol=73
1020:00:272 Off     ch=1   note=b6   vol=8
1020:00:335 Off     ch=1   note=a6   vol=32
1020:00:360 On      ch=1   note=f6   vol=61
1020:00:434 Off     ch=1   note=f6   vol=12

1050:00:000 On      ch=1   note=e6   vol=127
1050:00:119 On      ch=1   note=e6   vol=0
1050:01:000 On      ch=1   note=f6   vol=127
1050:01:059 On      ch=1   note=f6   vol=0
1050:01:060 On      ch=1   note=g6   vol=127
1050:02:059 On      ch=1   note=g6   vol=0
1050:02:060 On      ch=1   note=e6   vol=127
1050:02:119 On      ch=1   note=e6   vol=0
1050:03:000 On      ch=1   note=f6   vol=127
1050:03:119 On      ch=1   note=f6   vol=0

1170:00:000 On      ch=1   note=g5   vol=127
1170:02:000 On      ch=1   note=g5   vol=0
1170:02:000 On      ch=1   note=a5   vol=127
1171:00:000 On      ch=1   note=a5   vol=0
1171:00:000 On      ch=1   note=b5   vol=127
1171:02:000 On      ch=1   note=b5   vol=0
1171:02:000 On      ch=1   note=d5   vol=127
1172:02:000 On      ch=1   note=d5   vol=0
1172:02:000 Meta TrkEnd
TrkEnd
