MFile 1 1 192
MTrk
000:00:000 TimeSig 4/4 24 8
000:00:000 Tempo 500000
000:00:000 Meta SeqName "running/13/08-1A"
000:00:000 Meta Marker "xuender"
000:00:000 Meta Copyright "https://github.com/xuender/musical-timer"

000:00:000 ProgCh  ch=1   prog=14

000:00:000 On      ch=1   note=e6   vol=127
000:00:119 On      ch=1   note=e6   vol=0
000:01:000 On      ch=1   note=f6   vol=127
000:01:059 On      ch=1   note=f6   vol=0
000:01:060 On      ch=1   note=g6   vol=127
000:02:059 On      ch=1   note=g6   vol=0
000:02:060 On      ch=1   note=e6   vol=127
000:02:119 On      ch=1   note=e6   vol=0
000:03:000 On      ch=1   note=f6   vol=127
000:03:119 On      ch=1   note=f6   vol=0

300:00:000 On      ch=1   note=d5   vol=49
300:00:000 On      ch=1   note=c7   vol=71
300:00:120 On      ch=1   note=b6   vol=58
300:00:132 Off     ch=1   note=c7   vol=20
300:00:240 On      ch=1   note=a6   vol=73
300:00:272 Off     ch=1   note=b6   vol=8
300:00:335 Off     ch=1   note=a6   vol=32
300:00:360 On      ch=1   note=f6   vol=61
300:00:434 Off     ch=1   note=f6   vol=12

330:00:000 On      ch=1   note=e6   vol=127
330:00:119 On      ch=1   note=e6   vol=0
330:01:000 On      ch=1   note=f6   vol=127
330:01:059 On      ch=1   note=f6   vol=0
330:01:060 On      ch=1   note=g6   vol=127
330:02:059 On      ch=1   note=g6   vol=0
330:02:060 On      ch=1   note=e6   vol=127
330:02:119 On      ch=1   note=e6   vol=0
330:03:000 On      ch=1   note=f6   vol=127
330:03:119 On      ch=1   note=f6   vol=0

630:00:000 On      ch=1   note=d5   vol=49
630:00:000 On      ch=1   note=c7   vol=71
630:00:120 On      ch=1   note=b6   vol=58
630:00:132 Off     ch=1   note=c7   vol=20
630:00:240 On      ch=1   note=a6   vol=73
630:00:272 Off     ch=1   note=b6   vol=8
630:00:335 Off     ch=1   note=a6   vol=32
630:00:360 On      ch=1   note=f6   vol=61
630:00:434 Off     ch=1   note=f6   vol=12

660:00:000 On      ch=1   note=e6   vol=127
660:00:119 On      ch=1   note=e6   vol=0
660:01:000 On      ch=1   note=f6   vol=127
660:01:059 On      ch=1   note=f6   vol=0
660:01:060 On      ch=1   note=g6   vol=127
660:02:059 On      ch=1   note=g6   vol=0
660:02:060 On      ch=1   note=e6   vol=127
660:02:119 On      ch=1   note=e6   vol=0
660:03:000 On      ch=1   note=f6   vol=127
660:03:119 On      ch=1   note=f6   vol=0

960:00:000 On      ch=1   note=d5   vol=49
960:00:000 On      ch=1   note=c7   vol=71
960:00:120 On      ch=1   note=b6   vol=58
960:00:132 Off     ch=1   note=c7   vol=20
960:00:240 On      ch=1   note=a6   vol=73
960:00:272 Off     ch=1   note=b6   vol=8
960:00:335 Off     ch=1   note=a6   vol=32
960:00:360 On      ch=1   note=f6   vol=61
960:00:434 Off     ch=1   note=f6   vol=12

990:00:000 On      ch=1   note=e6   vol=127
990:00:119 On      ch=1   note=e6   vol=0
990:01:000 On      ch=1   note=f6   vol=127
990:01:059 On      ch=1   note=f6   vol=0
990:01:060 On      ch=1   note=g6   vol=127
990:02:059 On      ch=1   note=g6   vol=0
990:02:060 On      ch=1   note=e6   vol=127
990:02:119 On      ch=1   note=e6   vol=0
990:03:000 On      ch=1   note=f6   vol=127
990:03:119 On      ch=1   note=f6   vol=0

1290:00:000 On      ch=1   note=g5   vol=127
1290:02:000 On      ch=1   note=g5   vol=0
1290:02:000 On      ch=1   note=a5   vol=127
1291:00:000 On      ch=1   note=a5   vol=0
1291:00:000 On      ch=1   note=b5   vol=127
1291:02:000 On      ch=1   note=b5   vol=0
1291:02:000 On      ch=1   note=d5   vol=127
1292:02:000 On      ch=1   note=d5   vol=0
1292:02:000 Meta TrkEnd
TrkEnd
