MFile 1 1 192
MTrk
000:00:000 TimeSig 4/4 24 8
000:00:000 Tempo 500000
000:00:000 Meta SeqName "running/13/09-1B"
000:00:000 Meta Marker "xuender"
000:00:000 Meta Copyright "https://github.com/xuender/musical-timer"

000:00:000 ProgCh  ch=1   prog=14

000:00:000 On      ch=1   note=e6   vol=127
000:00:119 On      ch=1   note=e6   vol=0
000:01:000 On      ch=1   note=f6   vol=127
000:01:059 On      ch=1   note=f6   vol=0
000:01:060 On      ch=1   note=g6   vol=127
000:02:059 On      ch=1   note=g6   vol=0
000:02:060 On      ch=1   note=e6   vol=127
000:02:119 On      ch=1   note=e6   vol=0
000:03:000 On      ch=1   note=f6   vol=127
000:03:119 On      ch=1   note=f6   vol=0

180:00:000 On      ch=1   note=d5   vol=49
180:00:000 On      ch=1   note=c7   vol=71
180:00:120 On      ch=1   note=b6   vol=58
180:00:132 Off     ch=1   note=c7   vol=20
180:00:240 On      ch=1   note=a6   vol=73
180:00:272 Off     ch=1   note=b6   vol=8
180:00:335 Off     ch=1   note=a6   vol=32
180:00:360 On      ch=1   note=f6   vol=61
180:00:434 Off     ch=1   note=f6   vol=12

210:00:000 On      ch=1   note=e6   vol=127
210:00:119 On      ch=1   note=e6   vol=0
210:01:000 On      ch=1   note=f6   vol=127
210:01:059 On      ch=1   note=f6   vol=0
210:01:060 On      ch=1   note=g6   vol=127
210:02:059 On      ch=1   note=g6   vol=0
210:02:060 On      ch=1   note=e6   vol=127
210:02:119 On      ch=1   note=e6   vol=0
210:03:000 On      ch=1   note=f6   vol=127
210:03:119 On      ch=1   note=f6   vol=0

390:00:000 On      ch=1   note=d5   vol=49
390:00:000 On      ch=1   note=c7   vol=71
390:00:120 On      ch=1   note=b6   vol=58
390:00:132 Off     ch=1   note=c7   vol=20
390:00:240 On      ch=1   note=a6   vol=73
390:00:272 Off     ch=1   note=b6   vol=8
390:00:335 Off     ch=1   note=a6   vol=32
390:00:360 On      ch=1   note=f6   vol=61
390:00:434 Off     ch=1   note=f6   vol=12

420:00:000 On      ch=1   note=e6   vol=127
420:00:119 On      ch=1   note=e6   vol=0
420:01:000 On      ch=1   note=f6   vol=127
420:01:059 On      ch=1   note=f6   vol=0
420:01:060 On      ch=1   note=g6   vol=127
420:02:059 On      ch=1   note=g6   vol=0
420:02:060 On      ch=1   note=e6   vol=127
420:02:119 On      ch=1   note=e6   vol=0
420:03:000 On      ch=1   note=f6   vol=127
420:03:119 On      ch=1   note=f6   vol=0

600:00:000 On      ch=1   note=d5   vol=49
600:00:000 On      ch=1   note=c7   vol=71
600:00:120 On      ch=1   note=b6   vol=58
600:00:132 Off     ch=1   note=c7   vol=20
600:00:240 On      ch=1   note=a6   vol=73
600:00:272 Off     ch=1   note=b6   vol=8
600:00:335 Off     ch=1   note=a6   vol=32
600:00:360 On      ch=1   note=f6   vol=61
600:00:434 Off     ch=1   note=f6   vol=12

630:00:000 On      ch=1   note=e6   vol=127
630:00:119 On      ch=1   note=e6   vol=0
630:01:000 On      ch=1   note=f6   vol=127
630:01:059 On      ch=1   note=f6   vol=0
630:01:060 On      ch=1   note=g6   vol=127
630:02:059 On      ch=1   note=g6   vol=0
630:02:060 On      ch=1   note=e6   vol=127
630:02:119 On      ch=1   note=e6   vol=0
630:03:000 On      ch=1   note=f6   vol=127
630:03:119 On      ch=1   note=f6   vol=0

810:00:000 On      ch=1   note=d5   vol=49
810:00:000 On      ch=1   note=c7   vol=71
810:00:120 On      ch=1   note=b6   vol=58
810:00:132 Off     ch=1   note=c7   vol=20
810:00:240 On      ch=1   note=a6   vol=73
810:00:272 Off     ch=1   note=b6   vol=8
810:00:335 Off     ch=1   note=a6   vol=32
810:00:360 On      ch=1   note=f6   vol=61
810:00:434 Off     ch=1   note=f6   vol=12

840:00:000 On      ch=1   note=e6   vol=127
840:00:119 On      ch=1   note=e6   vol=0
840:01:000 On      ch=1   note=f6   vol=127
840:01:059 On      ch=1   note=f6   vol=0
840:01:060 On      ch=1   note=g6   vol=127
840:02:059 On      ch=1   note=g6   vol=0
840:02:060 On      ch=1   note=e6   vol=127
840:02:119 On      ch=1   note=e6   vol=0
840:03:000 On      ch=1   note=f6   vol=127
840:03:119 On      ch=1   note=f6   vol=0

1020:00:000 On      ch=1   note=d5   vol=49
1020:00:000 On      ch=1   note=c7   vol=71
1020:00:120 On      ch=1   note=b6   vol=58
1020:00:132 Off     ch=1   note=c7   vol=20
1020:00:240 On      ch=1   note=a6   vol=73
1020:00:272 Off     ch=1   note=b6   vol=8
1020:00:335 Off     ch=1   note=a6   vol=32
1020:00:360 On      ch=1   note=f6   vol=61
1020:00:434 Off     ch=1   note=f6   vol=12

1050:00:000 On      ch=1   note=e6   vol=127
1050:00:119 On      ch=1   note=e6   vol=0
1050:01:000 On      ch=1   note=f6   vol=127
1050:01:059 On      ch=1   note=f6   vol=0
1050:01:060 On      ch=1   note=g6   vol=127
1050:02:059 On      ch=1   note=g6   vol=0
1050:02:060 On      ch=1   note=e6   vol=127
1050:02:119 On      ch=1   note=e6   vol=0
1050:03:000 On      ch=1   note=f6   vol=127
1050:03:119 On      ch=1   note=f6   vol=0

1230:00:000 On      ch=1   note=d5   vol=49
1230:00:000 On      ch=1   note=c7   vol=71
1230:00:120 On      ch=1   note=b6   vol=58
1230:00:132 Off     ch=1   note=c7   vol=20
1230:00:240 On      ch=1   note=a6   vol=73
1230:00:272 Off     ch=1   note=b6   vol=8
1230:00:335 Off     ch=1   note=a6   vol=32
1230:00:360 On      ch=1   note=f6   vol=61
1230:00:434 Off     ch=1   note=f6   vol=12

1260:00:000 On      ch=1   note=e6   vol=127
1260:00:119 On      ch=1   note=e6   vol=0
1260:01:000 On      ch=1   note=f6   vol=127
1260:01:059 On      ch=1   note=f6   vol=0
1260:01:060 On      ch=1   note=g6   vol=127
1260:02:059 On      ch=1   note=g6   vol=0
1260:02:060 On      ch=1   note=e6   vol=127
1260:02:119 On      ch=1   note=e6   vol=0
1260:03:000 On      ch=1   note=f6   vol=127
1260:03:119 On      ch=1   note=f6   vol=0

1440:00:000 On      ch=1   note=d5   vol=49
1440:00:000 On      ch=1   note=c7   vol=71
1440:00:120 On      ch=1   note=b6   vol=58
1440:00:132 Off     ch=1   note=c7   vol=20
1440:00:240 On      ch=1   note=a6   vol=73
1440:00:272 Off     ch=1   note=b6   vol=8
1440:00:335 Off     ch=1   note=a6   vol=32
1440:00:360 On      ch=1   note=f6   vol=61
1440:00:434 Off     ch=1   note=f6   vol=12

1470:00:000 On      ch=1   note=e6   vol=127
1470:00:119 On      ch=1   note=e6   vol=0
1470:01:000 On      ch=1   note=f6   vol=127
1470:01:059 On      ch=1   note=f6   vol=0
1470:01:060 On      ch=1   note=g6   vol=127
1470:02:059 On      ch=1   note=g6   vol=0
1470:02:060 On      ch=1   note=e6   vol=127
1470:02:119 On      ch=1   note=e6   vol=0
1470:03:000 On      ch=1   note=f6   vol=127
1470:03:119 On      ch=1   note=f6   vol=0

1650:00:000 On      ch=1   note=g5   vol=127
1650:02:000 On      ch=1   note=g5   vol=0
1650:02:000 On      ch=1   note=a5   vol=127
1651:00:000 On      ch=1   note=a5   vol=0
1651:00:000 On      ch=1   note=b5   vol=127
1651:02:000 On      ch=1   note=b5   vol=0
1651:02:000 On      ch=1   note=d5   vol=127
1652:02:000 On      ch=1   note=d5   vol=0
1652:02:000 Meta TrkEnd
TrkEnd
