MFile 1 1 192
MTrk
000:00:000 TimeSig 4/4 24 8
000:00:000 Tempo 500000
000:00:000 Meta SeqName "running/13/09-1A"
000:00:000 Meta Marker "xuender"
000:00:000 Meta Copyright "https://github.com/xuender/musical-timer"

000:00:000 ProgCh  ch=1   prog=14

000:00:000 On      ch=1   note=e6   vol=127
000:00:119 On      ch=1   note=e6   vol=0
000:01:000 On      ch=1   note=f6   vol=127
000:01:059 On      ch=1   note=f6   vol=0
000:01:060 On      ch=1   note=g6   vol=127
000:02:059 On      ch=1   note=g6   vol=0
000:02:060 On      ch=1   note=e6   vol=127
000:02:119 On      ch=1   note=e6   vol=0
000:03:000 On      ch=1   note=f6   vol=127
000:03:119 On      ch=1   note=f6   vol=0

300:00:000 On      ch=1   note=d5   vol=49
300:00:000 On      ch=1   note=c7   vol=71
300:00:120 On      ch=1   note=b6   vol=58
300:00:132 Off     ch=1   note=c7   vol=20
300:00:240 On      ch=1   note=a6   vol=73
300:00:272 Off     ch=1   note=b6   vol=8
300:00:335 Off     ch=1   note=a6   vol=32
300:00:360 On      ch=1   note=f6   vol=61
300:00:434 Off     ch=1   note=f6   vol=12

330:00:000 On      ch=1   note=e6   vol=127
330:00:119 On      ch=1   note=e6   vol=0
330:01:000 On      ch=1   note=f6   vol=127
330:01:059 On      ch=1   note=f6   vol=0
330:01:060 On      ch=1   note=g6   vol=127
330:02:059 On      ch=1   note=g6   vol=0
330:02:060 On      ch=1   note=e6   vol=127
330:02:119 On      ch=1   note=e6   vol=0
330:03:000 On      ch=1   note=f6   vol=127
330:03:119 On      ch=1   note=f6   vol=0

780:00:000 On      ch=1   note=d5   vol=49
780:00:000 On      ch=1   note=c7   vol=71
780:00:120 On      ch=1   note=b6   vol=58
780:00:132 Off     ch=1   note=c7   vol=20
780:00:240 On      ch=1   note=a6   vol=73
780:00:272 Off     ch=1   note=b6   vol=8
780:00:335 Off     ch=1   note=a6   vol=32
780:00:360 On      ch=1   note=f6   vol=61
780:00:434 Off     ch=1   note=f6   vol=12

810:00:000 On      ch=1   note=e6   vol=127
810:00:119 On      ch=1   note=e6   vol=0
810:01:000 On      ch=1   note=f6   vol=127
810:01:059 On      ch=1   note=f6   vol=0
810:01:060 On      ch=1   note=g6   vol=127
810:02:059 On      ch=1   note=g6   vol=0
810:02:060 On      ch=1   note=e6   vol=127
810:02:119 On      ch=1   note=e6   vol=0
810:03:000 On      ch=1   note=f6   vol=127
810:03:119 On      ch=1   note=f6   vol=0

1410:00:000 On      ch=1   note=d5   vol=49
1410:00:000 On      ch=1   note=c7   vol=71
1410:00:120 On      ch=1   note=b6   vol=58
1410:00:132 Off     ch=1   note=c7   vol=20
1410:00:240 On      ch=1   note=a6   vol=73
1410:00:272 Off     ch=1   note=b6   vol=8
1410:00:335 Off     ch=1   note=a6   vol=32
1410:00:360 On      ch=1   note=f6   vol=61
1410:00:434 Off     ch=1   note=f6   vol=12

1440:00:000 On      ch=1   note=e6   vol=127
1440:00:119 On      ch=1   note=e6   vol=0
1440:01:000 On      ch=1   note=f6   vol=127
1440:01:059 On      ch=1   note=f6   vol=0
1440:01:060 On      ch=1   note=g6   vol=127
1440:02:059 On      ch=1   note=g6   vol=0
1440:02:060 On      ch=1   note=e6   vol=127
1440:02:119 On      ch=1   note=e6   vol=0
1440:03:000 On      ch=1   note=f6   vol=127
1440:03:119 On      ch=1   note=f6   vol=0

1740:00:000 On      ch=1   note=g5   vol=127
1740:02:000 On      ch=1   note=g5   vol=0
1740:02:000 On      ch=1   note=a5   vol=127
1741:00:000 On      ch=1   note=a5   vol=0
1741:00:000 On      ch=1   note=b5   vol=127
1741:02:000 On      ch=1   note=b5   vol=0
1741:02:000 On      ch=1   note=d5   vol=127
1742:02:000 On      ch=1   note=d5   vol=0
1742:02:000 Meta TrkEnd
TrkEnd
