MFile 1 1 192
MTrk
000:00:000 TimeSig 4/4 24 8
000:00:000 Tempo 500000
000:00:000 Meta SeqName "running/13/10-1B"
000:00:000 Meta Marker "xuender"
000:00:000 Meta Copyright "https://github.com/xuender/musical-timer"

000:00:000 ProgCh  ch=1   prog=14

000:00:000 On      ch=1   note=e6   vol=127
000:00:119 On      ch=1   note=e6   vol=0
000:01:000 On      ch=1   note=f6   vol=127
000:01:059 On      ch=1   note=f6   vol=0
000:01:060 On      ch=1   note=g6   vol=127
000:02:059 On      ch=1   note=g6   vol=0
000:02:060 On      ch=1   note=e6   vol=127
000:02:119 On      ch=1   note=e6   vol=0
000:03:000 On      ch=1   note=f6   vol=127
000:03:119 On      ch=1   note=f6   vol=0

240:00:000 On      ch=1   note=d5   vol=49
240:00:000 On      ch=1   note=c7   vol=71
240:00:120 On      ch=1   note=b6   vol=58
240:00:132 Off     ch=1   note=c7   vol=20
240:00:240 On      ch=1   note=a6   vol=73
240:00:272 Off     ch=1   note=b6   vol=8
240:00:335 Off     ch=1   note=a6   vol=32
240:00:360 On      ch=1   note=f6   vol=61
240:00:434 Off     ch=1   note=f6   vol=12

270:00:000 On      ch=1   note=e6   vol=127
270:00:119 On      ch=1   note=e6   vol=0
270:01:000 On      ch=1   note=f6   vol=127
270:01:059 On      ch=1   note=f6   vol=0
270:01:060 On      ch=1   note=g6   vol=127
270:02:059 On      ch=1   note=g6   vol=0
270:02:060 On      ch=1   note=e6   vol=127
270:02:119 On      ch=1   note=e6   vol=0
270:03:000 On      ch=1   note=f6   vol=127
270:03:119 On      ch=1   note=f6   vol=0

510:00:000 On      ch=1   note=d5   vol=49
510:00:000 On      ch=1   note=c7   vol=71
510:00:120 On      ch=1   note=b6   vol=58
510:00:132 Off     ch=1   note=c7   vol=20
510:00:240 On      ch=1   note=a6   vol=73
510:00:272 Off     ch=1   note=b6   vol=8
510:00:335 Off     ch=1   note=a6   vol=32
510:00:360 On      ch=1   note=f6   vol=61
510:00:434 Off     ch=1   note=f6   vol=12

540:00:000 On      ch=1   note=e6   vol=127
540:00:119 On      ch=1   note=e6   vol=0
540:01:000 On      ch=1   note=f6   vol=127
540:01:059 On      ch=1   note=f6   vol=0
540:01:060 On      ch=1   note=g6   vol=127
540:02:059 On      ch=1   note=g6   vol=0
540:02:060 On      ch=1   note=e6   vol=127
540:02:119 On      ch=1   note=e6   vol=0
540:03:000 On      ch=1   note=f6   vol=127
540:03:119 On      ch=1   note=f6   vol=0

780:00:000 On      ch=1   note=d5   vol=49
780:00:000 On      ch=1   note=c7   vol=71
780:00:120 On      ch=1   note=b6   vol=58
780:00:132 Off     ch=1   note=c7   vol=20
780:00:240 On      ch=1   note=a6   vol=73
780:00:272 Off     ch=1   note=b6   vol=8
780:00:335 Off     ch=1   note=a6   vol=32
780:00:360 On      ch=1   note=f6   vol=61
780:00:434 Off     ch=1   note=f6   vol=12

810:00:000 On      ch=1   note=e6   vol=127
810:00:119 On      ch=1   note=e6   vol=0
810:01:000 On      ch=1   note=f6   vol=127
810:01:059 On      ch=1   note=f6   vol=0
810:01:060 On      ch=1   note=g6   vol=127
810:02:059 On      ch=1   note=g6   vol=0
810:02:060 On      ch=1   note=e6   vol=127
810:02:119 On      ch=1   note=e6   vol=0
810:03:000 On      ch=1   note=f6   vol=127
810:03:119 On      ch=1   note=f6   vol=0

1050:00:000 On      ch=1   note=d5   vol=49
1050:00:000 On      ch=1   note=c7   vol=71
1050:00:120 On      ch=1   note=b6   vol=58
1050:00:132 Off     ch=1   note=c7   vol=20
1050:00:240 On      ch=1   note=a6   vol=73
1050:00:272 Off     ch=1   note=b6   vol=8
1050:00:335 Off     ch=1   note=a6   vol=32
1050:00:360 On      ch=1   note=f6   vol=61
1050:00:434 Off     ch=1   note=f6   vol=12

1080:00:000 On      ch=1   note=e6   vol=127
1080:00:119 On      ch=1   note=e6   vol=0
1080:01:000 On      ch=1   note=f6   vol=127
1080:01:059 On      ch=1   note=f6   vol=0
1080:01:060 On      ch=1   note=g6   vol=127
1080:02:059 On      ch=1   note=g6   vol=0
1080:02:060 On      ch=1   note=e6   vol=127
1080:02:119 On      ch=1   note=e6   vol=0
1080:03:000 On      ch=1   note=f6   vol=127
1080:03:119 On      ch=1   note=f6   vol=0

1320:00:000 On      ch=1   note=d5   vol=49
1320:00:000 On      ch=1   note=c7   vol=71
1320:00:120 On      ch=1   note=b6   vol=58
1320:00:132 Off     ch=1   note=c7   vol=20
1320:00:240 On      ch=1   note=a6   vol=73
1320:00:272 Off     ch=1   note=b6   vol=8
1320:00:335 Off     ch=1   note=a6   vol=32
1320:00:360 On      ch=1   note=f6   vol=61
1320:00:434 Off     ch=1   note=f6   vol=12

1350:00:000 On      ch=1   note=e6   vol=127
1350:00:119 On      ch=1   note=e6   vol=0
1350:01:000 On      ch=1   note=f6   vol=127
1350:01:059 On      ch=1   note=f6   vol=0
1350:01:060 On      ch=1   note=g6   vol=127
1350:02:059 On      ch=1   note=g6   vol=0
1350:02:060 On      ch=1   note=e6   vol=127
1350:02:119 On      ch=1   note=e6   vol=0
1350:03:000 On      ch=1   note=f6   vol=127
1350:03:119 On      ch=1   note=f6   vol=0

1590:00:000 On      ch=1   note=d5   vol=49
1590:00:000 On      ch=1   note=c7   vol=71
1590:00:120 On      ch=1   note=b6   vol=58
1590:00:132 Off     ch=1   note=c7   vol=20
1590:00:240 On      ch=1   note=a6   vol=73
1590:00:272 Off     ch=1   note=b6   vol=8
1590:00:335 Off     ch=1   note=a6   vol=32
1590:00:360 On      ch=1   note=f6   vol=61
1590:00:434 Off     ch=1   note=f6   vol=12

1620:00:000 On      ch=1   note=e6   vol=127
1620:00:119 On      ch=1   note=e6   vol=0
1620:01:000 On      ch=1   note=f6   vol=127
1620:01:059 On      ch=1   note=f6   vol=0
1620:01:060 On      ch=1   note=g6   vol=127
1620:02:059 On      ch=1   note=g6   vol=0
1620:02:060 On      ch=1   note=e6   vol=127
1620:02:119 On      ch=1   note=e6   vol=0
1620:03:000 On      ch=1   note=f6   vol=127
1620:03:119 On      ch=1   note=f6   vol=0

1860:00:000 On      ch=1   note=g5   vol=127
1860:02:000 On      ch=1   note=g5   vol=0
1860:02:000 On      ch=1   note=a5   vol=127
1861:00:000 On      ch=1   note=a5   vol=0
1861:00:000 On      ch=1   note=b5   vol=127
1861:02:000 On      ch=1   note=b5   vol=0
1861:02:000 On      ch=1   note=d5   vol=127
1862:02:000 On      ch=1   note=d5   vol=0
1862:02:000 Meta TrkEnd
TrkEnd
