MFile 1 1 192
MTrk
000:00:000 TimeSig 4/4 24 8
000:00:000 Tempo 500000
000:00:000 Meta SeqName "running/13/11-1A"
000:00:000 Meta Marker "xuender"
000:00:000 Meta Copyright "https://github.com/xuender/musical-timer"

000:00:000 ProgCh  ch=1   prog=14

000:00:000 On      ch=1   note=e6   vol=127
000:00:119 On      ch=1   note=e6   vol=0
000:01:000 On      ch=1   note=f6   vol=127
000:01:059 On      ch=1   note=f6   vol=0
000:01:060 On      ch=1   note=g6   vol=127
000:02:059 On      ch=1   note=g6   vol=0
000:02:060 On      ch=1   note=e6   vol=127
000:02:119 On      ch=1   note=e6   vol=0
000:03:000 On      ch=1   note=f6   vol=127
000:03:119 On      ch=1   note=f6   vol=0

1200:00:000 On      ch=1   note=d5   vol=49
1200:00:000 On      ch=1   note=c7   vol=71
1200:00:120 On      ch=1   note=b6   vol=58
1200:00:132 Off     ch=1   note=c7   vol=20
1200:00:240 On      ch=1   note=a6   vol=73
1200:00:272 Off     ch=1   note=b6   vol=8
1200:00:335 Off     ch=1   note=a6   vol=32
1200:00:360 On      ch=1   note=f6   vol=61
1200:00:434 Off     ch=1   note=f6   vol=12

1230:00:000 On      ch=1   note=e6   vol=127
1230:00:119 On      ch=1   note=e6   vol=0
1230:01:000 On      ch=1   note=f6   vol=127
1230:01:059 On      ch=1   note=f6   vol=0
1230:01:060 On      ch=1   note=g6   vol=127
1230:02:059 On      ch=1   note=g6   vol=0
1230:02:060 On      ch=1   note=e6   vol=127
1230:02:119 On      ch=1   note=e6   vol=0
1230:03:000 On      ch=1   note=f6   vol=127
1230:03:119 On      ch=1   note=f6   vol=0

1830:00:000 On      ch=1   note=g5   vol=127
1830:02:000 On      ch=1   note=g5   vol=0
1830:02:000 On      ch=1   note=a5   vol=127
1831:00:000 On      ch=1   note=a5   vol=0
1831:00:000 On      ch=1   note=b5   vol=127
1831:02:000 On      ch=1   note=b5   vol=0
1831:02:000 On      ch=1   note=d5   vol=127
1832:02:000 On      ch=1   note=d5   vol=0
1832:02:000 Meta TrkEnd
TrkEnd
