MFile 1 1 192
MTrk
000:00:000 TimeSig 4/4 24 8
000:00:000 Tempo 500000
000:00:000 Meta SeqName "running/13/11-3A"
000:00:000 Meta Marker "xuender"
000:00:000 Meta Copyright "https://github.com/xuender/musical-timer"

000:00:000 ProgCh  ch=1   prog=14

000:00:000 On      ch=1   note=e6   vol=127
000:00:119 On      ch=1   note=e6   vol=0
000:01:000 On      ch=1   note=f6   vol=127
000:01:059 On      ch=1   note=f6   vol=0
000:01:060 On      ch=1   note=g6   vol=127
000:02:059 On      ch=1   note=g6   vol=0
000:02:060 On      ch=1   note=e6   vol=127
000:02:119 On      ch=1   note=e6   vol=0
000:03:000 On      ch=1   note=f6   vol=127
000:03:119 On      ch=1   note=f6   vol=0

600:00:000 On      ch=1   note=d5   vol=49
600:00:000 On      ch=1   note=c7   vol=71
600:00:120 On      ch=1   note=b6   vol=58
600:00:132 Off     ch=1   note=c7   vol=20
600:00:240 On      ch=1   note=a6   vol=73
600:00:272 Off     ch=1   note=b6   vol=8
600:00:335 Off     ch=1   note=a6   vol=32
600:00:360 On      ch=1   note=f6   vol=61
600:00:434 Off     ch=1   note=f6   vol=12

630:00:000 On      ch=1   note=e6   vol=127
630:00:119 On      ch=1   note=e6   vol=0
630:01:000 On      ch=1   note=f6   vol=127
630:01:059 On      ch=1   note=f6   vol=0
630:01:060 On      ch=1   note=g6   vol=127
630:02:059 On      ch=1   note=g6   vol=0
630:02:060 On      ch=1   note=e6   vol=127
630:02:119 On      ch=1   note=e6   vol=0
630:03:000 On      ch=1   note=f6   vol=127
630:03:119 On      ch=1   note=f6   vol=0

1080:00:000 On      ch=1   note=d5   vol=49
1080:00:000 On      ch=1   note=c7   vol=71
1080:00:120 On      ch=1   note=b6   vol=58
1080:00:132 Off     ch=1   note=c7   vol=20
1080:00:240 On      ch=1   note=a6   vol=73
1080:00:272 Off     ch=1   note=b6   vol=8
1080:00:335 Off     ch=1   note=a6   vol=32
1080:00:360 On      ch=1   note=f6   vol=61
1080:00:434 Off     ch=1   note=f6   vol=12

1110:00:000 On      ch=1   note=e6   vol=127
1110:00:119 On      ch=1   note=e6   vol=0
1110:01:000 On      ch=1   note=f6   vol=127
1110:01:059 On      ch=1   note=f6   vol=0
1110:01:060 On      ch=1   note=g6   vol=127
1110:02:059 On      ch=1   note=g6   vol=0
1110:02:060 On      ch=1   note=e6   vol=127
1110:02:119 On      ch=1   note=e6   vol=0
1110:03:000 On      ch=1   note=f6   vol=127
1110:03:119 On      ch=1   note=f6   vol=0

1410:00:000 On      ch=1   note=g5   vol=127
1410:02:000 On      ch=1   note=g5   vol=0
1410:02:000 On      ch=1   note=a5   vol=127
1411:00:000 On      ch=1   note=a5   vol=0
1411:00:000 On      ch=1   note=b5   vol=127
1411:02:000 On      ch=1   note=b5   vol=0
1411:02:000 On      ch=1   note=d5   vol=127
1412:02:000 On      ch=1   note=d5   vol=0
1412:02:000 Meta TrkEnd
TrkEnd
