MFile 1 1 192
MTrk
000:00:000 TimeSig 4/4 24 8
000:00:000 Tempo 500000
000:00:000 Meta SeqName "running/13/12-3B"
000:00:000 Meta Marker "xuender"
000:00:000 Meta Copyright "https://github.com/xuender/musical-timer"

000:00:000 ProgCh  ch=1   prog=14

000:00:000 On      ch=1   note=e6   vol=127
000:00:119 On      ch=1   note=e6   vol=0
000:01:000 On      ch=1   note=f6   vol=127
000:01:059 On      ch=1   note=f6   vol=0
000:01:060 On      ch=1   note=g6   vol=127
000:02:059 On      ch=1   note=g6   vol=0
000:02:060 On      ch=1   note=e6   vol=127
000:02:119 On      ch=1   note=e6   vol=0
000:03:000 On      ch=1   note=f6   vol=127
000:03:119 On      ch=1   note=f6   vol=0

150:00:000 On      ch=1   note=d5   vol=49
150:00:000 On      ch=1   note=c7   vol=71
150:00:120 On      ch=1   note=b6   vol=58
150:00:132 Off     ch=1   note=c7   vol=20
150:00:240 On      ch=1   note=a6   vol=73
150:00:272 Off     ch=1   note=b6   vol=8
150:00:335 Off     ch=1   note=a6   vol=32
150:00:360 On      ch=1   note=f6   vol=61
150:00:434 Off     ch=1   note=f6   vol=12

180:00:000 On      ch=1   note=e6   vol=127
180:00:119 On      ch=1   note=e6   vol=0
180:01:000 On      ch=1   note=f6   vol=127
180:01:059 On      ch=1   note=f6   vol=0
180:01:060 On      ch=1   note=g6   vol=127
180:02:059 On      ch=1   note=g6   vol=0
180:02:060 On      ch=1   note=e6   vol=127
180:02:119 On      ch=1   note=e6   vol=0
180:03:000 On      ch=1   note=f6   vol=127
180:03:119 On      ch=1   note=f6   vol=0

330:00:000 On      ch=1   note=d5   vol=49
330:00:000 On      ch=1   note=c7   vol=71
330:00:120 On      ch=1   note=b6   vol=58
330:00:132 Off     ch=1   note=c7   vol=20
330:00:240 On      ch=1   note=a6   vol=73
330:00:272 Off     ch=1   note=b6   vol=8
330:00:335 Off     ch=1   note=a6   vol=32
330:00:360 On      ch=1   note=f6   vol=61
330:00:434 Off     ch=1   note=f6   vol=12

360:00:000 On      ch=1   note=e6   vol=127
360:00:119 On      ch=1   note=e6   vol=0
360:01:000 On      ch=1   note=f6   vol=127
360:01:059 On      ch=1   note=f6   vol=0
360:01:060 On      ch=1   note=g6   vol=127
360:02:059 On      ch=1   note=g6   vol=0
360:02:060 On      ch=1   note=e6   vol=127
360:02:119 On      ch=1   note=e6   vol=0
360:03:000 On      ch=1   note=f6   vol=127
360:03:119 On      ch=1   note=f6   vol=0

510:00:000 On      ch=1   note=d5   vol=49
510:00:000 On      ch=1   note=c7   vol=71
510:00:120 On      ch=1   note=b6   vol=58
510:00:132 Off     ch=1   note=c7   vol=20
510:00:240 On      ch=1   note=a6   vol=73
510:00:272 Off     ch=1   note=b6   vol=8
510:00:335 Off     ch=1   note=a6   vol=32
510:00:360 On      ch=1   note=f6   vol=61
510:00:434 Off     ch=1   note=f6   vol=12

540:00:000 On      ch=1   note=e6   vol=127
540:00:119 On      ch=1   note=e6   vol=0
540:01:000 On      ch=1   note=f6   vol=127
540:01:059 On      ch=1   note=f6   vol=0
540:01:060 On      ch=1   note=g6   vol=127
540:02:059 On      ch=1   note=g6   vol=0
540:02:060 On      ch=1   note=e6   vol=127
540:02:119 On      ch=1   note=e6   vol=0
540:03:000 On      ch=1   note=f6   vol=127
540:03:119 On      ch=1   note=f6   vol=0

690:00:000 On      ch=1   note=d5   vol=49
690:00:000 On      ch=1   note=c7   vol=71
690:00:120 On      ch=1   note=b6   vol=58
690:00:132 Off     ch=1   note=c7   vol=20
690:00:240 On      ch=1   note=a6   vol=73
690:00:272 Off     ch=1   note=b6   vol=8
690:00:335 Off     ch=1   note=a6   vol=32
690:00:360 On      ch=1   note=f6   vol=61
690:00:434 Off     ch=1   note=f6   vol=12

720:00:000 On      ch=1   note=e6   vol=127
720:00:119 On      ch=1   note=e6   vol=0
720:01:000 On      ch=1   note=f6   vol=127
720:01:059 On      ch=1   note=f6   vol=0
720:01:060 On      ch=1   note=g6   vol=127
720:02:059 On      ch=1   note=g6   vol=0
720:02:060 On      ch=1   note=e6   vol=127
720:02:119 On      ch=1   note=e6   vol=0
720:03:000 On      ch=1   note=f6   vol=127
720:03:119 On      ch=1   note=f6   vol=0

870:00:000 On      ch=1   note=d5   vol=49
870:00:000 On      ch=1   note=c7   vol=71
870:00:120 On      ch=1   note=b6   vol=58
870:00:132 Off     ch=1   note=c7   vol=20
870:00:240 On      ch=1   note=a6   vol=73
870:00:272 Off     ch=1   note=b6   vol=8
870:00:335 Off     ch=1   note=a6   vol=32
870:00:360 On      ch=1   note=f6   vol=61
870:00:434 Off     ch=1   note=f6   vol=12

900:00:000 On      ch=1   note=e6   vol=127
900:00:119 On      ch=1   note=e6   vol=0
900:01:000 On      ch=1   note=f6   vol=127
900:01:059 On      ch=1   note=f6   vol=0
900:01:060 On      ch=1   note=g6   vol=127
900:02:059 On      ch=1   note=g6   vol=0
900:02:060 On      ch=1   note=e6   vol=127
900:02:119 On      ch=1   note=e6   vol=0
900:03:000 On      ch=1   note=f6   vol=127
900:03:119 On      ch=1   note=f6   vol=0

1050:00:000 On      ch=1   note=d5   vol=49
1050:00:000 On      ch=1   note=c7   vol=71
1050:00:120 On      ch=1   note=b6   vol=58
1050:00:132 Off     ch=1   note=c7   vol=20
1050:00:240 On      ch=1   note=a6   vol=73
1050:00:272 Off     ch=1   note=b6   vol=8
1050:00:335 Off     ch=1   note=a6   vol=32
1050:00:360 On      ch=1   note=f6   vol=61
1050:00:434 Off     ch=1   note=f6   vol=12

1080:00:000 On      ch=1   note=e6   vol=127
1080:00:119 On      ch=1   note=e6   vol=0
1080:01:000 On      ch=1   note=f6   vol=127
1080:01:059 On      ch=1   note=f6   vol=0
1080:01:060 On      ch=1   note=g6   vol=127
1080:02:059 On      ch=1   note=g6   vol=0
1080:02:060 On      ch=1   note=e6   vol=127
1080:02:119 On      ch=1   note=e6   vol=0
1080:03:000 On      ch=1   note=f6   vol=127
1080:03:119 On      ch=1   note=f6   vol=0

1230:00:000 On      ch=1   note=g5   vol=127
1230:02:000 On      ch=1   note=g5   vol=0
1230:02:000 On      ch=1   note=a5   vol=127
1231:00:000 On      ch=1   note=a5   vol=0
1231:00:000 On      ch=1   note=b5   vol=127
1231:02:000 On      ch=1   note=b5   vol=0
1231:02:000 On      ch=1   note=d5   vol=127
1232:02:000 On      ch=1   note=d5   vol=0
1232:02:000 Meta TrkEnd
TrkEnd
