MFile 1 1 192
MTrk
000:00:000 TimeSig 4/4 24 8
000:00:000 Tempo 500000
000:00:000 Meta SeqName "running/13/12-3A"
000:00:000 Meta Marker "xuender"
000:00:000 Meta Copyright "https://github.com/xuender/musical-timer"

000:00:000 ProgCh  ch=1   prog=14

000:00:000 On      ch=1   note=e6   vol=127
000:00:119 On      ch=1   note=e6   vol=0
000:01:000 On      ch=1   note=f6   vol=127
000:01:059 On      ch=1   note=f6   vol=0
000:01:060 On      ch=1   note=g6   vol=127
000:02:059 On      ch=1   note=g6   vol=0
000:02:060 On      ch=1   note=e6   vol=127
000:02:119 On      ch=1   note=e6   vol=0
000:03:000 On      ch=1   note=f6   vol=127
000:03:119 On      ch=1   note=f6   vol=0

450:00:000 On      ch=1   note=d5   vol=49
450:00:000 On      ch=1   note=c7   vol=71
450:00:120 On      ch=1   note=b6   vol=58
450:00:132 Off     ch=1   note=c7   vol=20
450:00:240 On      ch=1   note=a6   vol=73
450:00:272 Off     ch=1   note=b6   vol=8
450:00:335 Off     ch=1   note=a6   vol=32
450:00:360 On      ch=1   note=f6   vol=61
450:00:434 Off     ch=1   note=f6   vol=12

480:00:000 On      ch=1   note=e6   vol=127
480:00:119 On      ch=1   note=e6   vol=0
480:01:000 On      ch=1   note=f6   vol=127
480:01:059 On      ch=1   note=f6   vol=0
480:01:060 On      ch=1   note=g6   vol=127
480:02:059 On      ch=1   note=g6   vol=0
480:02:060 On      ch=1   note=e6   vol=127
480:02:119 On      ch=1   note=e6   vol=0
480:03:000 On      ch=1   note=f6   vol=127
480:03:119 On      ch=1   note=f6   vol=0

930:00:000 On      ch=1   note=d5   vol=49
930:00:000 On      ch=1   note=c7   vol=71
930:00:120 On      ch=1   note=b6   vol=58
930:00:132 Off     ch=1   note=c7   vol=20
930:00:240 On      ch=1   note=a6   vol=73
930:00:272 Off     ch=1   note=b6   vol=8
930:00:335 Off     ch=1   note=a6   vol=32
930:00:360 On      ch=1   note=f6   vol=61
930:00:434 Off     ch=1   note=f6   vol=12

960:00:000 On      ch=1   note=e6   vol=127
960:00:119 On      ch=1   note=e6   vol=0
960:01:000 On      ch=1   note=f6   vol=127
960:01:059 On      ch=1   note=f6   vol=0
960:01:060 On      ch=1   note=g6   vol=127
960:02:059 On      ch=1   note=g6   vol=0
960:02:060 On      ch=1   note=e6   vol=127
960:02:119 On      ch=1   note=e6   vol=0
960:03:000 On      ch=1   note=f6   vol=127
960:03:119 On      ch=1   note=f6   vol=0

1260:00:000 On      ch=1   note=g5   vol=127
1260:02:000 On      ch=1   note=g5   vol=0
1260:02:000 On      ch=1   note=a5   vol=127
1261:00:000 On      ch=1   note=a5   vol=0
1261:00:000 On      ch=1   note=b5   vol=127
1261:02:000 On      ch=1   note=b5   vol=0
1261:02:000 On      ch=1   note=d5   vol=127
1262:02:000 On      ch=1   note=d5   vol=0
1262:02:000 Meta TrkEnd
TrkEnd
